HIERARCHY
ROOT Hips
{
	OFFSET -3.958830 18.904000 13.208200
	CHANNELS 6 Xposition Yposition Zposition Zrotation Yrotation Xrotation 
	JOINT LHipJoint
	{
		OFFSET 0.000000 0.000000 0.000000
		CHANNELS 3 Zrotation Yrotation Xrotation
		JOINT LeftUpLeg
		{
			OFFSET 1.800000 -1.400000 0.085000
			CHANNELS 3 Zrotation Yrotation Xrotation
			JOINT LeftLeg
			{
				OFFSET 2.215000 -6.000000 0.000000
				CHANNELS 3 Zrotation Yrotation Xrotation
				JOINT LeftFoot
				{
					OFFSET 2.500000 -6.900000 0.000000
					CHANNELS 3 Zrotation Yrotation Xrotation
					JOINT LeftToeBase
					{
						OFFSET 0.200000 -0.500000 1.950000
						CHANNELS 3 Zrotation Yrotation Xrotation
						End Site
						{
							OFFSET 0.000000 0.000000 0.000000
						}
					}
				}
			}
		}
	}
	JOINT RHipJoint
	{
		OFFSET 0.000000 0.000000 0.000000
		CHANNELS 3 Zrotation Yrotation Xrotation
		JOINT RightUpLeg
		{
			OFFSET -1.800000 -1.400000 0.085000
			CHANNELS 3 Zrotation Yrotation Xrotation
			JOINT RightLeg
			{
				OFFSET -2.215000 -6.000000 0.000000
				CHANNELS 3 Zrotation Yrotation Xrotation
				JOINT RightFoot
				{
					OFFSET -2.500000 -6.900000 0.000000
					CHANNELS 3 Zrotation Yrotation Xrotation
					JOINT RightToeBase
					{
						OFFSET -0.200000 -0.500000 1.950000
						CHANNELS 3 Zrotation Yrotation Xrotation
						End Site
						{
							OFFSET 0.000000 0.000000 0.000000
						}
					}
				}
			}
		}
	}
	JOINT LowerBack
	{
		OFFSET 0.000000 0.000000 0.000000
		CHANNELS 3 Zrotation Yrotation Xrotation
		JOINT Spine
		{
			OFFSET -0.087000 1.940000 -0.288900
			CHANNELS 3 Zrotation Yrotation Xrotation
			JOINT Spine1
			{
				OFFSET 0.000000 1.950000 0.060000
				CHANNELS 3 Zrotation Yrotation Xrotation
				JOINT Neck
				{
					OFFSET 0.000000 0.000000 0.000000
					CHANNELS 3 Zrotation Yrotation Xrotation
					JOINT Neck1
					{
						OFFSET 0.000000 1.600000 0.340000
						CHANNELS 3 Zrotation Yrotation Xrotation
						JOINT Head
						{
							OFFSET 0.000000 1.667000 -0.240000
							CHANNELS 3 Zrotation Yrotation Xrotation
							End Site
							{
								OFFSET 0.000000 0.000000 0.000000
							}
						}
					}
				}
				JOINT LeftShoulder
				{
					OFFSET 0.000000 0.000000 0.000000
					CHANNELS 3 Zrotation Yrotation Xrotation
					JOINT LeftArm
					{
						OFFSET 2.700000 1.550000 -0.730000
						CHANNELS 3 Zrotation Yrotation Xrotation
						JOINT LeftForeArm
						{
							OFFSET 5.450000 0.000000 0.000000
							CHANNELS 3 Zrotation Yrotation Xrotation
							JOINT LeftHand
							{
								OFFSET 3.450000 0.000000 0.000000
								CHANNELS 3 Zrotation Yrotation Xrotation
								JOINT LeftHandIndex1
								{
									OFFSET 0.750000 0.000000 0.000000
									CHANNELS 3 Zrotation Yrotation Xrotation
									End Site
									{
										OFFSET 0.000000 0.000000 0.000000
									}
								}
							}
						}
					}
				}
				JOINT RightShoulder
				{
					OFFSET 0.000000 0.000000 0.000000
					CHANNELS 3 Zrotation Yrotation Xrotation
					JOINT RightArm
					{
						OFFSET -2.700000 1.550000 -0.730000
						CHANNELS 3 Zrotation Yrotation Xrotation
						JOINT RightForeArm
						{
							OFFSET -5.450000 0.000000 0.000000
							CHANNELS 3 Zrotation Yrotation Xrotation
							JOINT RightHand
							{
								OFFSET -3.450000 0.000000 0.000000
								CHANNELS 3 Zrotation Yrotation Xrotation
								JOINT RightHandIndex1
								{
									OFFSET -0.750000 0.000000 0.000000
									CHANNELS 3 Zrotation Yrotation Xrotation
									End Site
									{
										OFFSET 0.000000 0.000000 0.000000
									}
								}
							}
						}
					}
				}
			}
		}
	}
}
MOTION
Frames: 7
Frame Time: 0.016667
1.850740 17.569490 -0.921650 -5.405009 7.794049 -8.296591 -15.125249 13.614143 3.594663 5.140603 -3.642908 -13.289129 -15.087252 11.899334 29.068713 0.365855 6.824075 2.031175 0.357540 0.313690 0.321250 18.123072 -11.388975 2.042003 -15.374911 0.500369 -24.383270 -4.917377 -5.848711 41.710284 -0.448819 -5.660454 2.161027 0.237840 -0.086600 0.062250 -3.598677 -2.130418 -7.925374 10.047023 -2.839303 19.330113 -1.182463 -2.088850 12.086119 2.297816 0.635894 -11.525201 -4.435913 0.926914 63.212950 -1.687330 0.063770 -0.754270 -20.830848 -25.226548 5.105582 -32.279721 -31.858554 5.086745 -26.341213 -52.257505 13.084704 -3.558965 3.194964 0.188020 -0.015870 0.119680 0.034470 17.012008 24.807797 6.250984 31.253680 24.905084 0.448087 40.926301 52.690238 17.505581 2.375289 -1.590319 -0.008510 0.093870 -0.095500 -0.111350 
1.843020 17.564980 -0.919720 -5.411316 8.012312 -8.065737 -15.116508 13.610818 3.580215 5.016750 -3.547892 -13.132241 -15.162550 11.700925 28.280230 0.348045 6.703742 2.079906 0.350020 0.305920 0.312830 18.132688 -11.428893 1.994827 -16.041873 0.261308 -23.977999 -4.800138 -5.956566 41.319207 -0.435307 -5.648149 2.165392 0.235290 -0.077560 0.060760 -3.631979 -2.099176 -7.884918 10.258285 -2.845865 18.942052 -1.169900 -2.169660 12.314985 2.186807 0.602775 -11.425843 -4.551474 0.948863 62.732778 -1.650370 0.046020 -0.581040 -20.096807 -24.878803 4.942150 -31.617596 -31.865455 5.082062 -25.950402 -53.173769 13.210643 -3.561345 3.199444 0.180080 -0.009610 0.111140 0.036700 16.474280 24.326891 6.341833 30.972360 24.382706 0.177819 40.806294 54.468924 18.115323 2.364767 -1.608337 -0.011540 0.094360 -0.093420 -0.108470 
1.818480 17.553850 -0.917110 -5.488630 8.497635 -7.529098 -15.102832 13.602250 3.548770 4.813165 -3.337712 -12.907294 -15.134067 11.225251 26.652735 0.295099 6.437369 2.183118 0.340680 0.296120 0.303230 18.143165 -11.537342 1.894808 -16.983737 -0.145076 -22.807937 -4.672812 -5.974009 39.913790 -0.394232 -5.524933 2.208477 0.236360 -0.058740 0.064800 -3.683518 -1.968266 -7.790822 10.506637 -2.694660 18.004653 -1.145398 -2.174140 12.771681 2.191184 0.823078 -11.137024 -3.872971 0.580064 61.593140 -1.765090 0.055320 -0.460440 -18.483823 -24.390513 4.730705 -30.232306 -31.947458 5.119968 -24.309942 -54.484592 12.877636 -3.574123 3.202125 0.162090 0.008850 0.093850 0.038540 14.851707 23.605470 6.130874 29.645020 24.484457 0.464828 40.329025 55.927705 18.675783 2.345461 -1.623955 -0.016330 0.093940 -0.088300 -0.105180 
1.781020 17.537240 -0.910510 -5.547474 8.978316 -6.882168 -15.089036 13.596971 3.509159 4.541877 -3.140785 -12.792190 -14.697038 10.718989 25.408778 0.240268 6.176843 2.283344 0.326240 0.282300 0.288410 18.147680 -11.688143 1.769328 -17.904998 -0.610599 -20.909931 -4.478282 -5.840398 37.256150 -0.325244 -5.250979 2.311143 0.235620 -0.037640 0.069290 -3.729830 -1.774083 -7.663733 10.644581 -2.306292 16.838309 -1.088524 -1.953500 13.354123 2.267395 1.225687 -10.858675 -2.783408 -0.138940 60.369372 -1.989760 -0.087030 -0.223630 -16.524767 -23.684797 4.476698 -28.524553 -31.833188 5.081223 -22.172323 -56.050034 12.332413 -3.588051 3.204891 0.139680 0.031500 0.072970 0.039150 12.759312 22.615926 5.985813 27.933216 24.176856 0.685968 40.219397 57.757663 19.550959 2.321622 -1.650957 -0.021130 0.091920 -0.080330 -0.100810 
1.730790 17.514080 -0.911730 -5.380769 9.096666 -5.861538 -15.099487 13.579521 3.462223 4.196160 -2.996947 -13.049942 -14.055528 10.215769 24.400679 0.179482 5.923713 2.384960 0.310260 0.269420 0.267820 18.134416 -11.785123 1.678534 -18.880491 -0.963572 -18.989602 -3.872888 -5.692134 33.605563 -0.239793 -4.888328 2.451773 0.239520 -0.000970 0.074040 -3.703217 -1.620723 -7.527046 10.109162 -1.670606 15.488323 -0.601557 -1.537471 13.863531 2.272172 1.569331 -10.407264 -1.746944 -0.656827 58.471299 -2.107810 -0.138330 -0.153680 -14.048196 -22.270178 4.119015 -27.219545 -31.500877 5.167161 -20.197837 -57.602890 11.771322 -3.609508 3.208682 0.111520 0.063280 0.044890 0.044800 10.338278 21.126937 5.612532 25.985726 24.007971 1.206272 40.930995 59.539895 20.916082 2.296958 -1.683574 -0.031070 0.100340 -0.069460 -0.092650 
1.679210 17.499900 -0.924670 -5.034243 8.576756 -4.918897 -15.111551 13.556557 3.434120 3.852199 -2.944096 -13.470606 -13.530776 9.865984 23.803867 0.142340 5.733718 2.458215 0.300630 0.262470 0.248220 18.117289 -11.831940 1.634079 -19.806875 -1.168171 -17.036704 -3.261203 -5.426079 29.468244 -0.166839 -4.505411 2.605683 0.239700 0.023850 0.076530 -3.650957 -1.524400 -7.434001 9.423107 -0.969668 14.654512 -0.024482 -1.026350 14.216596 2.139035 1.592758 -10.138981 -1.475630 -0.692110 57.077421 -1.906230 -0.217760 -0.080440 -12.235613 -20.845601 3.925711 -25.271729 -30.127387 4.549952 -17.514350 -59.007708 10.657892 -3.611106 3.223121 0.092330 0.080900 0.025780 0.051570 8.833174 19.965171 5.371623 24.052365 23.490447 1.267121 40.384432 61.089809 21.524415 2.274310 -1.713263 -0.033740 0.103450 -0.062890 -0.083400 
1.623720 17.491150 -0.939170 -4.996041 7.636606 -4.072527 -15.105659 13.527308 3.397621 4.072437 -2.850259 -13.956223 -13.168722 9.634808 23.256826 0.108450 5.595219 2.512772 0.287530 0.249090 0.232260 18.117061 -11.862316 1.636070 -20.105889 -1.132011 -15.638915 -3.147980 -5.071582 26.499375 -0.123788 -4.250554 2.716708 0.236970 0.045510 0.073720 -3.636584 -1.408425 -7.372184 9.154813 -0.261177 14.115948 0.437632 -0.421172 14.360254 1.995536 1.467619 -9.942711 -1.547005 -0.609263 55.709472 -1.771610 -0.275620 -0.054050 -10.920173 -19.512782 3.785900 -23.254628 -28.486450 3.849744 -15.057674 -59.983604 9.527391 -3.611443 3.229021 0.081160 0.092950 0.009590 0.056130 7.793619 18.997342 5.204202 22.196038 22.710760 1.049879 38.739763 61.944893 21.216539 2.253185 -1.730669 -0.042480 0.111700 -0.056260 -0.077710 
